<svg id="XMLID_1_" xmlns="http://www.w3.org/2000/svg" xmlns:xlink="http://www.w3.org/1999/xlink" viewBox="0 0 160 158.804">
  <defs>
    <style>
      .cls-1 {
        fill: #3a3733;
      }

      .cls-2 {
        fill: url(#linear-gradient);
      }

      .cls-3 {
        fill: url(#linear-gradient-2);
      }

      .cls-4 {
        fill: url(#linear-gradient-3);
      }

      .cls-5 {
        fill: url(#linear-gradient-4);
      }

      .cls-6 {
        fill: url(#linear-gradient-5);
      }

      .cls-7 {
        fill: url(#linear-gradient-6);
      }

      .cls-8 {
        fill: url(#linear-gradient-7);
      }

      .cls-9 {
        fill: url(#linear-gradient-8);
      }

      .cls-10 {
        fill: url(#linear-gradient-9);
      }

      .cls-11 {
        fill: url(#linear-gradient-10);
      }

      .cls-12 {
        fill: url(#linear-gradient-11);
      }

      .cls-13 {
        fill: url(#linear-gradient-12);
      }

      .cls-14 {
        fill: url(#linear-gradient-13);
      }

      .cls-15 {
        fill: url(#linear-gradient-14);
      }

      .cls-16 {
        fill: url(#linear-gradient-15);
      }

      .cls-17 {
        fill: url(#linear-gradient-16);
      }

      .cls-18 {
        fill: url(#linear-gradient-17);
      }

      .cls-19 {
        fill: url(#linear-gradient-18);
      }

      .cls-20 {
        fill: url(#linear-gradient-19);
      }

      .cls-21 {
        fill: url(#linear-gradient-20);
      }

      .cls-22 {
        fill: url(#linear-gradient-21);
      }

      .cls-23 {
        fill: url(#linear-gradient-22);
      }

      .cls-24 {
        fill: url(#linear-gradient-23);
      }

      .cls-25 {
        fill: url(#linear-gradient-24);
      }

      .cls-26 {
        fill: url(#linear-gradient-25);
      }

      .cls-27 {
        fill: url(#linear-gradient-26);
      }

      .cls-28 {
        fill: url(#linear-gradient-27);
      }

      .cls-29 {
        fill: url(#linear-gradient-28);
      }

      .cls-30 {
        fill: url(#linear-gradient-29);
      }

      .cls-31 {
        fill: url(#linear-gradient-30);
      }

      .cls-32 {
        fill: #fff;
      }

      .cls-33 {
        fill: url(#linear-gradient-31);
      }
    </style>
    <linearGradient id="linear-gradient" x1="-0.001" y1="0.5" x2="0.999" y2="0.5" gradientUnits="objectBoundingBox">
      <stop offset="0" stop-color="#d8d9d8"/>
      <stop offset="0.143" stop-color="#c6c5c5"/>
      <stop offset="0.392" stop-color="#a19d9e"/>
      <stop offset="0.717" stop-color="#6d6969"/>
      <stop offset="1" stop-color="#444142"/>
    </linearGradient>
    <linearGradient id="linear-gradient-2" x1="1.007" y1="0.5" x2="-0.005" y2="0.5" gradientUnits="objectBoundingBox">
      <stop offset="0" stop-color="#fff"/>
      <stop offset="0.104" stop-color="#fafafa"/>
      <stop offset="0.228" stop-color="#ececec"/>
      <stop offset="0.361" stop-color="#d4d4d4"/>
      <stop offset="0.502" stop-color="#b2b2b2"/>
      <stop offset="0.648" stop-color="#878787"/>
      <stop offset="0.799" stop-color="#535353"/>
      <stop offset="0.951" stop-color="#161616"/>
      <stop offset="1"/>
    </linearGradient>
    <linearGradient id="linear-gradient-3" x1="0.996" y1="0.5" x2="-0.016" y2="0.5" xlink:href="#linear-gradient-2"/>
    <linearGradient id="linear-gradient-4" x1="1.003" y1="0.5" x2="-0.008" y2="0.5" gradientUnits="objectBoundingBox">
      <stop offset="0.363" stop-color="#fff"/>
      <stop offset="0.429" stop-color="#fafafa"/>
      <stop offset="0.508" stop-color="#ececec"/>
      <stop offset="0.593" stop-color="#d4d4d4"/>
      <stop offset="0.683" stop-color="#b2b2b2"/>
      <stop offset="0.776" stop-color="#878787"/>
      <stop offset="0.872" stop-color="#535353"/>
      <stop offset="0.969" stop-color="#161616"/>
      <stop offset="1"/>
    </linearGradient>
    <linearGradient id="linear-gradient-5" x1="1.009" y1="0.5" x2="0" y2="0.5" xlink:href="#linear-gradient-2"/>
    <linearGradient id="linear-gradient-6" x1="1" y1="0.5" x2="-0.011" y2="0.5" xlink:href="#linear-gradient-2"/>
    <linearGradient id="linear-gradient-7" x1="-126.394" y1="-7.829" x2="-126.394" y2="-7.58" gradientUnits="objectBoundingBox">
      <stop offset="0" stop-color="#444142"/>
      <stop offset="0.5" stop-color="#d8d9d8"/>
      <stop offset="0.571" stop-color="#c6c5c5"/>
      <stop offset="0.696" stop-color="#a19d9e"/>
      <stop offset="0.859" stop-color="#6d6969"/>
      <stop offset="1" stop-color="#444142"/>
    </linearGradient>
    <linearGradient id="linear-gradient-8" x1="-4.807" y1="-6.024" x2="-4.668" y2="-6.024" xlink:href="#linear-gradient"/>
    <linearGradient id="linear-gradient-9" x1="-5.182" y1="-17.233" x2="-5.2" y2="-17.233" xlink:href="#linear-gradient-2"/>
    <linearGradient id="linear-gradient-10" x1="-5.158" y1="-16.926" x2="-5.176" y2="-16.926" xlink:href="#linear-gradient-2"/>
    <linearGradient id="linear-gradient-11" x1="-5.134" y1="-16.619" x2="-5.151" y2="-16.619" xlink:href="#linear-gradient-4"/>
    <linearGradient id="linear-gradient-12" x1="-5.11" y1="-16.313" x2="-5.127" y2="-16.313" xlink:href="#linear-gradient-2"/>
    <linearGradient id="linear-gradient-13" x1="-5.085" y1="-16.01" x2="-5.103" y2="-16.01" xlink:href="#linear-gradient-2"/>
    <linearGradient id="linear-gradient-14" x1="-205.025" y1="-4.662" x2="-199.045" y2="-4.662" xlink:href="#linear-gradient-7"/>
    <linearGradient id="linear-gradient-15" x1="-162.074" y1="-133.136" x2="-155.681" y2="-133.136" gradientUnits="objectBoundingBox">
      <stop offset="0" stop-color="#d8d9d8"/>
      <stop offset="0.114" stop-color="#cfcece"/>
      <stop offset="0.309" stop-color="#b6b6b6"/>
      <stop offset="0.479" stop-color="#989696"/>
      <stop offset="0.839" stop-color="#5c5859"/>
      <stop offset="1" stop-color="#444142"/>
    </linearGradient>
    <linearGradient id="linear-gradient-16" x1="-121.954" y1="-7.779" x2="-116.037" y2="-7.779" xlink:href="#linear-gradient-7"/>
    <linearGradient id="linear-gradient-17" x1="-169.168" y1="-148.737" x2="-163.2" y2="-148.737" xlink:href="#linear-gradient-7"/>
    <linearGradient id="linear-gradient-18" x1="-52.118" y1="-7.403" x2="-52.118" y2="-6.858" gradientUnits="objectBoundingBox">
      <stop offset="0" stop-color="#9f9e9e"/>
      <stop offset="1" stop-color="#444142"/>
    </linearGradient>
    <linearGradient id="linear-gradient-19" x1="-104.738" y1="-2.478" x2="-100.101" y2="-2.478" xlink:href="#linear-gradient-7"/>
    <linearGradient id="linear-gradient-20" x1="-74.809" y1="-3.221" x2="-72.61" y2="-3.221" gradientUnits="objectBoundingBox">
      <stop offset="0" stop-color="#444142"/>
      <stop offset="0.534" stop-color="#d8d9d8"/>
      <stop offset="0.601" stop-color="#c6c5c5"/>
      <stop offset="0.717" stop-color="#a19d9e"/>
      <stop offset="0.868" stop-color="#6d6969"/>
      <stop offset="1" stop-color="#444142"/>
    </linearGradient>
    <linearGradient id="linear-gradient-21" x1="-47.029" y1="-7.09" x2="-47.029" y2="-6.246" xlink:href="#linear-gradient"/>
    <linearGradient id="linear-gradient-22" x1="0.5" y1="-0.419" x2="0.5" y2="2.024" xlink:href="#linear-gradient-7"/>
    <linearGradient id="linear-gradient-23" x1="0" y1="-1698.267" x2="0.999" y2="-1698.267" xlink:href="#linear-gradient-15"/>
    <linearGradient id="linear-gradient-24" x1="0" y1="0.504" x2="1" y2="0.504" xlink:href="#linear-gradient-7"/>
    <linearGradient id="linear-gradient-25" x1="0.001" y1="-1700.263" x2="1" y2="-1700.263" xlink:href="#linear-gradient-7"/>
    <linearGradient id="linear-gradient-26" x1="0.5" y1="-0.209" x2="0.5" y2="1.469" xlink:href="#linear-gradient-18"/>
    <linearGradient id="linear-gradient-27" x1="0.5" y1="0.042" x2="0.5" y2="2.442" xlink:href="#linear-gradient"/>
    <linearGradient id="linear-gradient-28" x1="0" y1="0.497" x2="1" y2="0.497" xlink:href="#linear-gradient-7"/>
    <linearGradient id="linear-gradient-29" x1="0" y1="0.517" x2="1" y2="0.517" xlink:href="#linear-gradient-7"/>
    <linearGradient id="linear-gradient-30" x1="0" y1="0.495" x2="1" y2="0.495" xlink:href="#linear-gradient-7"/>
    <linearGradient id="linear-gradient-31" x1="0" y1="0.5" x2="1" y2="0.5" xlink:href="#linear-gradient-7"/>
  </defs>
  <g id="XMLID_532_" transform="translate(19.542 151.625)">
    <path id="Path_226" data-name="Path 226" class="cls-1" d="M54.408,424.962h3.336v.435H53.9v-7h.508Z" transform="translate(-53.9 -418.327)"/>
    <path id="Path_227" data-name="Path 227" class="cls-1" d="M75.91,425.1a2.375,2.375,0,0,0,.906-.181,2.322,2.322,0,0,0,.689-.471,2.035,2.035,0,0,0,.435-.725,2.5,2.5,0,0,0,.145-.906V418.5h.508v4.315a3.418,3.418,0,0,1-.181,1.088,2.2,2.2,0,0,1-.544.87,2.3,2.3,0,0,1-.834.58,2.828,2.828,0,0,1-2.175,0,2.3,2.3,0,0,1-.834-.58,3.53,3.53,0,0,1-.544-.87,3.418,3.418,0,0,1-.181-1.088V418.5h.508v4.315a2.5,2.5,0,0,0,.145.906,2.035,2.035,0,0,0,.435.725,2.613,2.613,0,0,0,.689.508A1.564,1.564,0,0,0,75.91,425.1Z" transform="translate(-66.266 -418.391)"/>
    <path id="Path_228" data-name="Path 228" class="cls-1" d="M98.574,421.808,96.145,418.4h.508a.133.133,0,0,1,.109.036l.073.073,2.139,3.082c0-.036.036-.036.036-.073s.036-.036.036-.073l2.067-2.9.073-.073c.036-.036.036-.036.073-.036h.471L99.3,421.808l2.5,3.626h-.508a.133.133,0,0,1-.109-.036c-.036-.036-.036-.073-.073-.073L98.9,422.1a.275.275,0,0,1-.073.145l-2.175,3.082c-.036.036-.036.073-.073.073a.133.133,0,0,1-.109.036H96Z" transform="translate(-80.736 -418.327)"/>
    <path id="Path_229" data-name="Path 229" class="cls-1" d="M132.208,422.243V425.4H131.7v-7h1.777a2.849,2.849,0,0,1,1.813.471,1.661,1.661,0,0,1,.616,1.378,1.623,1.623,0,0,1-.145.725,2.072,2.072,0,0,1-.4.58,2.245,2.245,0,0,1-.616.4,2.809,2.809,0,0,1-.834.218.961.961,0,0,1,.218.181l2.393,3.046h-.435a.218.218,0,0,1-.145-.036c-.036-.036-.073-.036-.109-.109l-2.248-2.828a.636.636,0,0,0-.181-.145.707.707,0,0,0-.29-.036Zm0-.4h1.233a2.907,2.907,0,0,0,.834-.109,1.426,1.426,0,0,0,.616-.326,1.906,1.906,0,0,0,.4-.508,1.732,1.732,0,0,0,.145-.653,1.333,1.333,0,0,0-.508-1.124,2.267,2.267,0,0,0-1.414-.363h-1.269v3.082Z" transform="translate(-103.492 -418.327)"/>
    <path id="Path_230" data-name="Path 230" class="cls-1" d="M158.206,418.4v.435h-3.7v2.828h3.082v.4h-3.082v2.9h3.7v.435H154v-7Z" transform="translate(-117.707 -418.327)"/>
    <path id="Path_231" data-name="Path 231" class="cls-1" d="M177.988,419.143c-.036.073-.073.073-.145.073a.331.331,0,0,1-.181-.109,1,1,0,0,0-.29-.218,2.415,2.415,0,0,0-.435-.218,1.756,1.756,0,0,0-.653-.109,2.111,2.111,0,0,0-.689.109,1.167,1.167,0,0,0-.471.29,1.3,1.3,0,0,0-.29.435,1.28,1.28,0,0,0-.109.508.92.92,0,0,0,.145.58,1.392,1.392,0,0,0,.4.4,2.891,2.891,0,0,0,.58.29l.653.218a4.842,4.842,0,0,1,.653.254,1.839,1.839,0,0,1,.58.326,1.627,1.627,0,0,1,.4.471,1.438,1.438,0,0,1,.145.725,2.127,2.127,0,0,1-.145.834,2.757,2.757,0,0,1-.435.689,1.718,1.718,0,0,1-.689.435,2.568,2.568,0,0,1-.943.181,2.433,2.433,0,0,1-1.2-.254,3.9,3.9,0,0,1-.87-.653l.145-.218a.188.188,0,0,1,.145-.073c.036,0,.073.036.109.073s.109.073.181.145a1.535,1.535,0,0,0,.254.181,1.47,1.47,0,0,0,.326.181,3.023,3.023,0,0,0,.435.145,2.286,2.286,0,0,0,1.269-.036,1.365,1.365,0,0,0,.544-.326,2.574,2.574,0,0,0,.363-.508,1.9,1.9,0,0,0,.109-.653,1.111,1.111,0,0,0-.145-.616,1.392,1.392,0,0,0-.4-.4,2.807,2.807,0,0,0-.58-.254l-.653-.218-.653-.218a1.838,1.838,0,0,1-.58-.326,1.383,1.383,0,0,1-.4-.508,1.5,1.5,0,0,1-.145-.761,1.571,1.571,0,0,1,.145-.689,2.072,2.072,0,0,1,.4-.58,1.974,1.974,0,0,1,.653-.4,2.194,2.194,0,0,1,.87-.145,2.768,2.768,0,0,1,.979.181,2.238,2.238,0,0,1,.8.544Z" transform="translate(-130.456 -418.2)"/>
    <path id="Path_232" data-name="Path 232" class="cls-1" d="M198.338,418.4v.435h-2.465V425.4h-.508v-6.562H192.9V418.4Z" transform="translate(-142.503 -418.327)"/>
    <path id="Path_233" data-name="Path 233" class="cls-1" d="M222.107,421.853a4.005,4.005,0,0,1-.254,1.487,2.94,2.94,0,0,1-.689,1.124,3.621,3.621,0,0,1-1.051.725,3.336,3.336,0,0,1-1.378.254,3.165,3.165,0,0,1-1.341-.254,3.036,3.036,0,0,1-1.051-.725,3.734,3.734,0,0,1-.943-2.61,3.693,3.693,0,0,1,.254-1.45,3.464,3.464,0,0,1,.689-1.124,3.621,3.621,0,0,1,1.051-.725,3.278,3.278,0,0,1,1.341-.254,3.452,3.452,0,0,1,1.378.254,3.035,3.035,0,0,1,1.051.725,3.9,3.9,0,0,1,.689,1.124A3.576,3.576,0,0,1,222.107,421.853Zm-.508,0a3.649,3.649,0,0,0-.218-1.305,2.647,2.647,0,0,0-1.45-1.6,2.88,2.88,0,0,0-1.16-.218,2.825,2.825,0,0,0-1.124.218,2.677,2.677,0,0,0-.906.616,2.922,2.922,0,0,0-.58.979,3.792,3.792,0,0,0-.218,1.305,3.513,3.513,0,0,0,.218,1.305,2.6,2.6,0,0,0,.58.979,2.677,2.677,0,0,0,.906.616,2.955,2.955,0,0,0,1.124.218,3.006,3.006,0,0,0,1.16-.218,2.225,2.225,0,0,0,.87-.616,2.923,2.923,0,0,0,.58-.979A3.792,3.792,0,0,0,221.6,421.853Z" transform="translate(-156.846 -418.264)"/>
    <path id="Path_234" data-name="Path 234" class="cls-1" d="M244.808,422.243V425.4H244.3v-7h1.777a2.849,2.849,0,0,1,1.813.471,1.661,1.661,0,0,1,.616,1.378,1.623,1.623,0,0,1-.145.725,2.072,2.072,0,0,1-.4.58,2.245,2.245,0,0,1-.616.4,2.81,2.81,0,0,1-.834.218.962.962,0,0,1,.218.181l2.393,3.046h-.435a.218.218,0,0,1-.145-.036c-.036-.036-.073-.036-.109-.109l-2.248-2.828a.636.636,0,0,0-.181-.145.707.707,0,0,0-.29-.036Zm0-.4h1.233a2.907,2.907,0,0,0,.834-.109,1.426,1.426,0,0,0,.616-.326,1.906,1.906,0,0,0,.4-.508,1.732,1.732,0,0,0,.145-.653,1.333,1.333,0,0,0-.508-1.124,2.267,2.267,0,0,0-1.414-.363h-1.269v3.082Z" transform="translate(-175.268 -418.327)"/>
    <path id="Path_235" data-name="Path 235" class="cls-1" d="M270.236,425.4h-.4a.133.133,0,0,1-.109-.036c-.036-.036-.036-.073-.073-.109l-.834-2.03h-3.444l-.834,2.03c0,.036-.036.073-.073.109a.133.133,0,0,1-.109.036H264l2.864-7h.508Zm-4.713-2.538h3.154l-1.414-3.553c-.036-.073-.036-.109-.073-.181s-.036-.145-.073-.218c-.036.073-.036.145-.073.218s-.036.145-.073.181Z" transform="translate(-187.825 -418.327)"/>
    <path id="Path_236" data-name="Path 236" class="cls-1" d="M292.738,418.4v.435h-2.465V425.4h-.508v-6.562H287.3V418.4Z" transform="translate(-202.677 -418.327)"/>
    <path id="Path_237" data-name="Path 237" class="cls-1" d="M312.108,425.4H311.6v-7h.508Z" transform="translate(-218.167 -418.327)"/>
    <path id="Path_238" data-name="Path 238" class="cls-1" d="M330.107,421.853a4,4,0,0,1-.254,1.487,2.94,2.94,0,0,1-.689,1.124,3.622,3.622,0,0,1-1.051.725,3.336,3.336,0,0,1-1.378.254,3.165,3.165,0,0,1-1.341-.254,3.036,3.036,0,0,1-1.051-.725,3.734,3.734,0,0,1-.943-2.61,3.693,3.693,0,0,1,.254-1.45,3.464,3.464,0,0,1,.689-1.124,3.621,3.621,0,0,1,1.051-.725,3.277,3.277,0,0,1,1.341-.254,3.452,3.452,0,0,1,1.378.254,3.036,3.036,0,0,1,1.051.725,3.9,3.9,0,0,1,.689,1.124A3.576,3.576,0,0,1,330.107,421.853Zm-.508,0a3.649,3.649,0,0,0-.218-1.305,2.647,2.647,0,0,0-1.45-1.6,2.88,2.88,0,0,0-1.16-.218,2.825,2.825,0,0,0-1.124.218,2.677,2.677,0,0,0-.906.616,2.922,2.922,0,0,0-.58.979,3.793,3.793,0,0,0-.218,1.305,3.513,3.513,0,0,0,.218,1.305,2.6,2.6,0,0,0,.58.979,2.677,2.677,0,0,0,.906.616,2.955,2.955,0,0,0,1.124.218,3.006,3.006,0,0,0,1.16-.218,2.225,2.225,0,0,0,.87-.616,2.922,2.922,0,0,0,.58-.979A3.793,3.793,0,0,0,329.6,421.853Z" transform="translate(-225.689 -418.264)"/>
    <path id="Path_239" data-name="Path 239" class="cls-1" d="M352.2,418.436a.078.078,0,0,1,.073.073l4.532,6.055V418.4h.435v7h-.254a.2.2,0,0,1-.181-.109l-4.568-6.091v6.2H351.8v-7h.254C352.126,418.4,352.163,418.4,352.2,418.436Z" transform="translate(-243.792 -418.327)"/>
    <path id="Path_240" data-name="Path 240" class="cls-1" d="M380.288,419.143c-.036.073-.073.073-.145.073a.331.331,0,0,1-.181-.109,1,1,0,0,0-.29-.218,2.414,2.414,0,0,0-.435-.218,1.756,1.756,0,0,0-.653-.109,2.111,2.111,0,0,0-.689.109,1.167,1.167,0,0,0-.471.29,1.3,1.3,0,0,0-.29.435,1.28,1.28,0,0,0-.109.508.92.92,0,0,0,.145.58,1.392,1.392,0,0,0,.4.4,2.89,2.89,0,0,0,.58.29l.653.218a4.842,4.842,0,0,1,.653.254,1.839,1.839,0,0,1,.58.326,1.627,1.627,0,0,1,.4.471,1.438,1.438,0,0,1,.145.725,2.127,2.127,0,0,1-.145.834,2.757,2.757,0,0,1-.435.689,1.718,1.718,0,0,1-.689.435,2.568,2.568,0,0,1-.943.181,2.433,2.433,0,0,1-1.2-.254,3.9,3.9,0,0,1-.87-.653l.145-.218a.188.188,0,0,1,.145-.073c.036,0,.073.036.109.073s.109.073.181.145a1.535,1.535,0,0,0,.254.181,1.47,1.47,0,0,0,.326.181,3.023,3.023,0,0,0,.435.145,2.286,2.286,0,0,0,1.269-.036,1.365,1.365,0,0,0,.544-.326,2.574,2.574,0,0,0,.363-.508,1.9,1.9,0,0,0,.109-.653,1.111,1.111,0,0,0-.145-.616,1.391,1.391,0,0,0-.4-.4,2.806,2.806,0,0,0-.58-.254l-.653-.218-.653-.218a1.839,1.839,0,0,1-.58-.326,1.383,1.383,0,0,1-.4-.508,1.5,1.5,0,0,1-.145-.761,1.571,1.571,0,0,1,.145-.689,2.072,2.072,0,0,1,.4-.58,1.974,1.974,0,0,1,.653-.4,2.194,2.194,0,0,1,.87-.145,2.768,2.768,0,0,1,.979.181,2.237,2.237,0,0,1,.8.544Z" transform="translate(-259.409 -418.2)"/>
  </g>
  <path id="XMLID_530_" d="M141.325,256.184a12.641,12.641,0,0,0,4.967-.906,10.043,10.043,0,0,0,3.7-2.647,11.95,11.95,0,0,0,2.32-4.169,17.827,17.827,0,0,0,.8-5.62V207.6h13.814v35.241a27.19,27.19,0,0,1-1.777,10.043,22.3,22.3,0,0,1-5.076,7.868,23.075,23.075,0,0,1-8.049,5.148,31.754,31.754,0,0,1-21.355,0,23.075,23.075,0,0,1-8.049-5.148,22.631,22.631,0,0,1-5.076-7.868,27.949,27.949,0,0,1-1.74-10.043V207.6h13.814v35.205a17.985,17.985,0,0,0,.8,5.62,12.121,12.121,0,0,0,2.32,4.206,10.042,10.042,0,0,0,3.7,2.647A12.035,12.035,0,0,0,141.325,256.184Z" transform="translate(-73.815 -132.331)"/>
  <path id="XMLID_528_" d="M317.322,267.1H303.508a3.382,3.382,0,0,1-2.175-.653,5.033,5.033,0,0,1-1.341-1.559l-11.928-20.811a9,9,0,0,1-.725,1.559l-11.094,19.288a10.619,10.619,0,0,1-1.341,1.523,2.843,2.843,0,0,1-1.994.689H260L279.143,236.5l-18.418-28.9h13.814a4.067,4.067,0,0,1,1.994.363,2.892,2.892,0,0,1,1.124,1.16l11.856,20.05a8.679,8.679,0,0,1,.471-1.015c.181-.326.363-.653.58-1.015l10.369-17.8a4.258,4.258,0,0,1,1.2-1.305,3.015,3.015,0,0,1,1.559-.4h13.234l-18.672,28.28Z" transform="translate(-165.733 -132.331)"/>
  <path id="XMLID_527_" d="M180.186,276.922,64.6,257.126l.4-45.574,3.481-3.952,10.116.254-3.916,45.393,93.723,5.8s7.4.725,8.339,0,2.1,1.958,2.1,1.958,4.641.181,4.713-5.112l3.082,1.088Z" transform="translate(-41.178 -132.331)"/>
  <g id="XMLID_520_" transform="translate(15.119 85.275)">
    <rect id="XMLID_526_" class="cls-2" width="16.823" height="55.327"/>
    <path id="XMLID_525_" class="cls-3" d="M47.414,292.941h-.906a.5.5,0,0,1-.508-.508V245.808a.5.5,0,0,1,.508-.508h.906a.5.5,0,0,1,.508.508v46.626A.5.5,0,0,1,47.414,292.941Z" transform="translate(-44.441 -241.638)"/>
    <path id="XMLID_524_" class="cls-4" d="M55.514,292.941h-.906a.5.5,0,0,1-.508-.508V245.808a.5.5,0,0,1,.508-.508h.906a.5.5,0,0,1,.508.508v46.626A.519.519,0,0,1,55.514,292.941Z" transform="translate(-49.604 -241.638)"/>
    <path id="XMLID_523_" class="cls-5" d="M63.514,292.941h-.906a.5.5,0,0,1-.508-.508V245.808a.5.5,0,0,1,.508-.508h.906a.5.5,0,0,1,.508.508v46.626A.5.5,0,0,1,63.514,292.941Z" transform="translate(-54.704 -241.638)"/>
    <path id="XMLID_522_" class="cls-6" d="M71.514,292.941h-.906a.5.5,0,0,1-.508-.508V245.808a.5.5,0,0,1,.508-.508h.906a.5.5,0,0,1,.508.508v46.626A.476.476,0,0,1,71.514,292.941Z" transform="translate(-59.803 -241.638)"/>
    <path id="XMLID_521_" class="cls-7" d="M79.614,292.941h-.906a.5.5,0,0,1-.508-.508V245.808a.5.5,0,0,1,.508-.508h.906a.5.5,0,0,1,.508.508v46.626A.5.5,0,0,1,79.614,292.941Z" transform="translate(-64.966 -241.638)"/>
  </g>
  <g id="XMLID_502_" transform="translate(3.553 116.773)">
    <path id="XMLID_519_" class="cls-8" d="M19.422,324,17.5,351.845l3.082-3.807,1.378-19.832Z" transform="translate(-14.708 -323.302)"/>
    <path id="XMLID_518_" class="cls-9" d="M172,349.53l-1.124,16.859L50.5,358.2l1.16-16.9Z" transform="translate(-35.744 -334.33)"/>
    <path id="XMLID_517_" class="cls-10" d="M173.758,387.158l-.073.943a.52.52,0,0,1-.544.471l-111.67-7.614a.52.52,0,0,1-.471-.544l.073-.943a.52.52,0,0,1,.544-.471l111.67,7.614A.477.477,0,0,1,173.758,387.158Z" transform="translate(-42.437 -358.361)"/>
    <path id="XMLID_516_" class="cls-11" d="M174.358,379.058l-.073.943a.52.52,0,0,1-.544.471l-111.67-7.614a.52.52,0,0,1-.471-.544l.073-.943a.52.52,0,0,1,.544-.471l111.67,7.614A.549.549,0,0,1,174.358,379.058Z" transform="translate(-42.819 -353.198)"/>
    <path id="XMLID_515_" class="cls-12" d="M174.858,370.958l-.073.943a.52.52,0,0,1-.544.471l-111.67-7.614a.52.52,0,0,1-.471-.544l.073-.943a.52.52,0,0,1,.544-.471l111.67,7.614A.516.516,0,0,1,174.858,370.958Z" transform="translate(-43.138 -348.035)"/>
    <path id="XMLID_514_" class="cls-13" d="M175.458,362.858l-.073.943a.52.52,0,0,1-.544.471l-111.67-7.614a.52.52,0,0,1-.471-.544l.073-.943a.52.52,0,0,1,.544-.471l111.67,7.614A.579.579,0,0,1,175.458,362.858Z" transform="translate(-43.52 -342.871)"/>
    <path id="XMLID_513_" class="cls-14" d="M175.958,354.858l-.073.943a.52.52,0,0,1-.544.471l-111.67-7.614a.52.52,0,0,1-.471-.544l.073-.943a.52.52,0,0,1,.544-.471l111.67,7.614A.477.477,0,0,1,175.958,354.858Z" transform="translate(-43.839 -337.772)"/>
    <path id="XMLID_512_" class="cls-15" d="M385.644,359.653l-1.342,19.47a.586.586,0,0,1-.58.508l-1.015-.073a.586.586,0,0,1-.508-.58l1.341-19.47a.586.586,0,0,1,.58-.508l1.015.073A.586.586,0,0,1,385.644,359.653Z" transform="translate(-247.181 -345.612)"/>
    <path id="XMLID_511_" class="cls-16" d="M40.28,332.8l-1.487,21.863a.557.557,0,0,0,.508.58l1.015.073a.557.557,0,0,0,.58-.508l1.487-21.863a.557.557,0,0,0-.508-.58l-1.015-.073A.557.557,0,0,0,40.28,332.8Z" transform="translate(-28.28 -328.587)"/>
    <path id="XMLID_510_" class="cls-17" d="M11.685,323.5,9.8,351.345l2.792.181,1.922-27.845Z" transform="translate(-9.8 -322.983)"/>
    <path id="XMLID_509_" class="cls-18" d="M46.135,336.5l-1.341,19.47a.557.557,0,0,0,.508.58l1.015.073a.557.557,0,0,0,.58-.508l1.341-19.47a.557.557,0,0,0-.508-.58l-1.015-.073A.532.532,0,0,0,46.135,336.5Z" transform="translate(-32.104 -330.944)"/>
    <path id="XMLID_508_" class="cls-19" d="M32.777,346.858a3.118,3.118,0,0,1-.326,4.75,5.178,5.178,0,0,1-6.707-.471,4.32,4.32,0,0,1-1.378-3.843c.4-5.62.979-14.394,1.341-19.76a3.647,3.647,0,0,1,1.849-3.118,5.178,5.178,0,0,1,6.707.471,3.118,3.118,0,0,1-.326,4.75" transform="translate(-19.072 -322.92)"/>
    <path id="XMLID_507_" class="cls-20" d="M410.975,345.2,408.8,377.069l4.713.326,2.175-31.87Z" transform="translate(-264.137 -336.816)"/>
    <path id="XMLID_506_" class="cls-21" d="M389.333,355.751l-.616,8.774v.109l-.616,8.774s7.94.653,7.614,5.438l.943-13.669v-.109L397.6,351.4C397.273,356.222,389.333,355.751,389.333,355.751Z" transform="translate(-250.942 -340.768)"/>
    <path id="XMLID_503_" class="cls-22" d="M26.243,323.208a.637.637,0,0,0-.181.145,3.832,3.832,0,0,0-1.849,3.3h0c-.254,3.7-.616,9.028-.943,13.7-.145,2.212-.29,4.278-.4,6.055a4.81,4.81,0,0,0,1.523,4.206,5.827,5.827,0,0,0,7.505.508,3.54,3.54,0,0,0,.363-5.438,3.945,3.945,0,0,0-4.967-.435l.036-.544a5.5,5.5,0,0,1,4.713-2.03l.073-.906a6.83,6.83,0,0,0-4.677,1.45l.145-2.175a8.516,8.516,0,0,1,4.641-.8l.073-.906a10.35,10.35,0,0,0-4.641.616l.181-2.465,4.568.326.073-.906-4.568-.326.181-2.465a10.056,10.056,0,0,0,4.5,1.233l.073-.906a8.623,8.623,0,0,1-4.5-1.414l.145-2.175a6.762,6.762,0,0,0,4.423,2.1l.073-.906a5.43,5.43,0,0,1-4.387-2.683l.036-.544a3.652,3.652,0,0,0,2.357.979,3.842,3.842,0,0,0,2.61-.761,3.646,3.646,0,0,0,1.45-2.647,3.7,3.7,0,0,0-1.088-2.828A6.105,6.105,0,0,0,26.243,323.208Zm6.671,1.16a2.664,2.664,0,0,1-.29,4.061,2.443,2.443,0,0,1-1.813.508,2.648,2.648,0,0,1-1.7-.761,1.552,1.552,0,0,1,.145-2.357,1.457,1.457,0,0,1,1.015-.29,1.438,1.438,0,0,1,.943.435.874.874,0,0,1,.254.653.76.76,0,0,1-.145.4,1.094,1.094,0,0,0-1.051-.979,1.074,1.074,0,0,0-1.2.906,2.038,2.038,0,0,0,.254.834,1.979,1.979,0,0,0,2.538.181,1.779,1.779,0,0,0,.725-1.269,1.727,1.727,0,0,0-.544-1.378,2.661,2.661,0,0,0-1.74-.761,2.691,2.691,0,0,0-1.813.544,2.544,2.544,0,0,0-1.015,1.885h-.036l-1.378,20.34H26.1a2.537,2.537,0,0,0,.761,1.777,2.661,2.661,0,0,0,1.74.761,2.69,2.69,0,0,0,1.813-.544,1.779,1.779,0,0,0,.725-1.269,1.727,1.727,0,0,0-.544-1.378,1.979,1.979,0,0,0-2.538-.181,1.8,1.8,0,0,0-.363.8,1.081,1.081,0,0,0,1.051,1.088,1.134,1.134,0,0,0,1.2-.8.624.624,0,0,1,.073.435.871.871,0,0,1-.326.616,1.457,1.457,0,0,1-1.015.29,1.438,1.438,0,0,1-.943-.435,1.552,1.552,0,0,1,.145-2.357,2.7,2.7,0,0,1,3.517.254,2.664,2.664,0,0,1-.29,4.061,4.566,4.566,0,0,1-5.91-.4,3.86,3.86,0,0,1-1.233-3.481c.109-1.777.254-3.879.4-6.055.326-4.713.689-10.007.943-13.7h0a2.942,2.942,0,0,1,1.487-2.61.637.637,0,0,0,.181-.145A4.525,4.525,0,0,1,32.914,324.368Z" transform="translate(-18.121 -322.075)"/>
  </g>
  <g id="XMLID_493_" transform="translate(10.088 73.021)">
    <path id="XMLID_501_" class="cls-23" d="M55.572,208.3H30.7l3.553,2.538H51.983Z" transform="translate(-29.658 -205.798)"/>
    <path id="XMLID_500_" class="cls-24" d="M56.279,226.9H37.643a.96.96,0,0,0-.943.943h0a.96.96,0,0,0,.943.943H56.279a.96.96,0,0,0,.943-.943h0A.96.96,0,0,0,56.279,226.9Z" transform="translate(-33.482 -217.655)"/>
    <rect id="XMLID_499_" class="cls-25" width="24.872" height="2.502" transform="translate(1.042)"/>
    <path id="XMLID_498_" class="cls-26" d="M57.039,232.1h-16.5a.96.96,0,0,0-.943.943h0a.96.96,0,0,0,.943.943h16.5a.96.96,0,0,0,.943-.943h0A.914.914,0,0,0,57.039,232.1Z" transform="translate(-35.331 -220.969)"/>
    <path id="XMLID_497_" class="cls-27" d="M34.33,221.269a2.739,2.739,0,0,1-4.242,0,4.707,4.707,0,0,1,0-6.019,3.933,3.933,0,0,1,3.336-1.45H51.116a3.188,3.188,0,0,1,2.864,1.45,4.707,4.707,0,0,1,0,6.019,2.739,2.739,0,0,1-4.242,0" transform="translate(-28.574 -209.304)"/>
    <path id="XMLID_494_" class="cls-28" d="M53.558,214c-.036-.036-.073-.109-.145-.145a3.394,3.394,0,0,0-3.046-1.45H32.711a4.371,4.371,0,0,0-3.662,1.6,5.208,5.208,0,0,0,0,6.707,3.154,3.154,0,0,0,4.858,0,3.546,3.546,0,0,0,.109-4.423h.508a4.94,4.94,0,0,1,2.1,4.061h.8a5.887,5.887,0,0,0-1.6-4.061H37.75a7.269,7.269,0,0,1,.979,4.061h.8a9.089,9.089,0,0,0-.834-4.061H40.9v4.061h.8v-4.061h2.212a9.22,9.22,0,0,0-.834,4.061h.761a7.616,7.616,0,0,1,.979-4.061h1.922a5.964,5.964,0,0,0-1.6,4.061h.8a4.719,4.719,0,0,1,2.1-4.061h.508a3.584,3.584,0,0,0,.109,4.46,3.251,3.251,0,0,0,2.429,1.124,3.2,3.2,0,0,0,2.429-1.124A5.214,5.214,0,0,0,53.558,214Zm-.616,6.019a2.387,2.387,0,0,1-3.626,0,2.436,2.436,0,0,1-.58-1.559,2.363,2.363,0,0,1,.58-1.559,1.374,1.374,0,0,1,2.1,0,1.323,1.323,0,0,1,0,1.74.7.7,0,0,1-.544.254.613.613,0,0,1-.363-.109.994.994,0,0,0,.8-1.015.971.971,0,0,0-.906-1.015,2.066,2.066,0,0,0-.725.29,1.8,1.8,0,0,0,0,2.284,1.549,1.549,0,0,0,1.2.544,1.6,1.6,0,0,0,1.2-.544,2.46,2.46,0,0,0,.58-1.6,2.534,2.534,0,0,0-.58-1.6,2.148,2.148,0,0,0-1.74-.761H32.094v.036a2.291,2.291,0,0,0-1.559.761,2.46,2.46,0,0,0-.58,1.6,2.534,2.534,0,0,0,.58,1.6,1.549,1.549,0,0,0,1.2.544,1.6,1.6,0,0,0,1.2-.544,1.8,1.8,0,0,0,0-2.284,1.784,1.784,0,0,0-.725-.29A.949.949,0,0,0,31.3,217.8a1.023,1.023,0,0,0,.8,1.015.7.7,0,0,1-.363.109.771.771,0,0,1-.544-.254,1.323,1.323,0,0,1,0-1.74,1.374,1.374,0,0,1,2.1,0,2.464,2.464,0,0,1,0,3.154,2.387,2.387,0,0,1-3.626,0,4.067,4.067,0,0,1,0-5.293,3.514,3.514,0,0,1,3.046-1.305H50.367a2.612,2.612,0,0,1,2.429,1.16c.036.036.073.109.145.145A4.055,4.055,0,0,1,52.942,220.014Z" transform="translate(-27.825 -208.412)"/>
  </g>
  <g id="XMLID_489_" transform="translate(5.185 65.624)">
    <rect id="XMLID_492_" class="cls-29" width="149.921" height="2.538" transform="translate(0 4.967)"/>
    <rect id="XMLID_491_" class="cls-30" width="145.099" height="1.341" transform="translate(2.429 2.901)"/>
    <path id="XMLID_490_" class="cls-31" d="M164.99,183.067H17.1L18.514,181H163.576Z" transform="translate(-16.085 -181)"/>
  </g>
  <g id="XMLID_400_" transform="translate(11.856 57.322)">
    <g id="XMLID_487_" transform="translate(0 0)">
      <path id="XMLID_488_" class="cls-32" d="M33.933,163.829H32.7v-.689h.544v-3.263h2.683v-1.088H32.7V158.1h3.916v2.5H33.933Z" transform="translate(-32.7 -158.1)"/>
    </g>
    <g id="XMLID_483_" transform="translate(2.248)">
      <path id="XMLID_484_" class="cls-32" d="M44.193,163.829H38.9v-2.393h2.719V158.1h5.257v2.465H44.193Zm-4.6-.689H43.5v-3.263h2.683v-1.088H42.308v3.336H39.589Z" transform="translate(-38.9 -158.1)"/>
    </g>
    <g id="XMLID_479_" transform="translate(8.52)">
      <path id="XMLID_480_" class="cls-32" d="M61.53,163.829H56.2v-2.393h2.719V158.1h5.257v2.465H61.493v3.263Zm-4.6-.689h3.916v-3.263h2.683v-1.088H59.644v3.336H56.925Z" transform="translate(-56.2 -158.1)"/>
    </g>
    <g id="XMLID_475_" transform="translate(14.829)">
      <path id="XMLID_476_" class="cls-32" d="M78.893,163.829H73.6v-2.393h2.719V158.1h5.257v2.465H78.893Zm-4.6-.689H78.2v-3.263h2.683v-1.088H77.008v3.336H74.289Z" transform="translate(-73.6 -158.1)"/>
    </g>
    <g id="XMLID_471_" transform="translate(21.138)">
      <path id="XMLID_472_" class="cls-32" d="M96.293,163.829H91v-2.393h2.719V158.1h5.257v2.465H96.293Zm-4.6-.689H95.6v-3.263h2.683v-1.088H94.408v3.336H91.689Z" transform="translate(-91 -158.1)"/>
    </g>
    <g id="XMLID_467_" transform="translate(27.446)">
      <path id="XMLID_468_" class="cls-32" d="M113.693,163.829H108.4v-2.393h2.719V158.1h5.257v2.465h-2.683Zm-4.6-.689H113v-3.263h2.683v-1.088h-3.879v3.336h-2.719Z" transform="translate(-108.4 -158.1)"/>
    </g>
    <g id="XMLID_463_" transform="translate(33.755)">
      <path id="XMLID_464_" class="cls-32" d="M131.093,163.829H125.8v-2.393h2.719V158.1h5.257v2.465h-2.683Zm-4.6-.689H130.4v-3.263h2.683v-1.088h-3.879v3.336h-2.719Z" transform="translate(-125.8 -158.1)"/>
    </g>
    <g id="XMLID_459_" transform="translate(40.027)">
      <path id="XMLID_460_" class="cls-32" d="M148.393,163.829H143.1v-2.393h2.719V158.1h5.257v2.465h-2.683Zm-4.6-.689H147.7v-3.263h2.683v-1.088h-3.879v3.336h-2.719Z" transform="translate(-143.1 -158.1)"/>
    </g>
    <g id="XMLID_455_" transform="translate(46.336)">
      <path id="XMLID_456_" class="cls-32" d="M165.793,163.829H160.5v-2.393h2.719V158.1h5.257v2.465h-2.683Zm-4.6-.689H165.1v-3.263h2.683v-1.088h-3.879v3.336h-2.719Z" transform="translate(-160.5 -158.1)"/>
    </g>
    <g id="XMLID_451_" transform="translate(52.644)">
      <path id="XMLID_452_" class="cls-32" d="M183.193,163.829H177.9v-2.393h2.719V158.1h5.293v2.465H183.23v3.263Zm-4.6-.689H182.5v-3.263h2.683v-1.088h-3.879v3.336h-2.719Z" transform="translate(-177.9 -158.1)"/>
    </g>
    <g id="XMLID_447_" transform="translate(58.953)">
      <path id="XMLID_448_" class="cls-32" d="M200.593,163.829H195.3v-2.393h2.719V158.1h5.257v2.465h-2.683Zm-4.6-.689H199.9v-3.263h2.683v-1.088h-3.879v3.336h-2.719Z" transform="translate(-195.3 -158.1)"/>
    </g>
    <g id="XMLID_443_" transform="translate(65.262)">
      <path id="XMLID_444_" class="cls-32" d="M217.993,163.829H212.7v-2.393h2.719V158.1h5.257v2.465h-2.683Zm-4.6-.689H217.3v-3.263h2.683v-1.088h-3.879v3.336h-2.719Z" transform="translate(-212.7 -158.1)"/>
    </g>
    <g id="XMLID_439_" transform="translate(71.534)">
      <path id="XMLID_440_" class="cls-32" d="M235.293,163.829H230v-2.393h2.719V158.1h5.257v2.465h-2.683Zm-4.6-.689H234.6v-3.263h2.683v-1.088h-3.879v3.336h-2.719Z" transform="translate(-230 -158.1)"/>
    </g>
    <g id="XMLID_435_" transform="translate(77.843)">
      <path id="XMLID_436_" class="cls-32" d="M252.693,163.829H247.4v-2.393h2.719V158.1h5.257v2.465h-2.683Zm-4.6-.689H252v-3.263h2.683v-1.088h-3.879v3.336h-2.719Z" transform="translate(-247.4 -158.1)"/>
    </g>
    <g id="XMLID_431_" transform="translate(84.151)">
      <path id="XMLID_432_" class="cls-32" d="M270.093,163.829H264.8v-2.393h2.719V158.1h5.257v2.465h-2.683Zm-4.6-.689H269.4v-3.263h2.683v-1.088h-3.879v3.336h-2.719Z" transform="translate(-264.8 -158.1)"/>
    </g>
    <g id="XMLID_427_" transform="translate(90.46)">
      <path id="XMLID_428_" class="cls-32" d="M287.493,163.829H282.2v-2.393h2.719V158.1h5.257v2.465h-2.683Zm-4.6-.689H286.8v-3.263h2.683v-1.088h-3.879v3.336h-2.719Z" transform="translate(-282.2 -158.1)"/>
    </g>
    <g id="XMLID_423_" transform="translate(96.769)">
      <path id="XMLID_424_" class="cls-32" d="M304.893,163.829H299.6v-2.393h2.719V158.1h5.257v2.465h-2.683Zm-4.6-.689H304.2v-3.263h2.683v-1.088h-3.879v3.336h-2.719Z" transform="translate(-299.6 -158.1)"/>
    </g>
    <g id="XMLID_419_" transform="translate(103.041)">
      <path id="XMLID_420_" class="cls-32" d="M322.193,163.829H316.9v-2.393h2.719V158.1h5.293v2.465H322.23v3.263Zm-4.6-.689H321.5v-3.263h2.683v-1.088h-3.879v3.336h-2.719Z" transform="translate(-316.9 -158.1)"/>
    </g>
    <g id="XMLID_415_" transform="translate(109.35)">
      <path id="XMLID_416_" class="cls-32" d="M339.593,163.829H334.3v-2.393h2.719V158.1h5.257v2.465h-2.683Zm-4.6-.689H338.9v-3.263h2.683v-1.088h-3.879v3.336h-2.719v1.015Z" transform="translate(-334.3 -158.1)"/>
    </g>
    <g id="XMLID_411_" transform="translate(115.658)">
      <path id="XMLID_412_" class="cls-32" d="M356.993,163.829H351.7v-2.393h2.719V158.1h5.257v2.465h-2.683Zm-4.6-.689H356.3v-3.263h2.683v-1.088h-3.879v3.336h-2.719Z" transform="translate(-351.7 -158.1)"/>
    </g>
    <g id="XMLID_407_" transform="translate(121.967)">
      <path id="XMLID_408_" class="cls-32" d="M374.393,163.829H369.1v-2.393h2.719V158.1h5.257v2.465h-2.683Zm-4.6-.689H373.7v-3.263h2.683v-1.088h-3.879v3.336h-2.719Z" transform="translate(-369.1 -158.1)"/>
    </g>
    <g id="XMLID_403_" transform="translate(128.276)">
      <path id="XMLID_404_" class="cls-32" d="M391.793,163.829H386.5v-2.393h2.719V158.1h5.257v2.465h-2.683Zm-4.6-.689H391.1v-3.263h2.683v-1.088h-3.879v3.336h-2.719v1.015Z" transform="translate(-386.5 -158.1)"/>
    </g>
    <g id="XMLID_401_" transform="translate(134.548 0)">
      <path id="XMLID_402_" class="cls-32" d="M408.767,163.829H403.8v-2.393h2.719V158.1h2.248v.689h-1.559v3.336h-2.719v1.015h4.278Z" transform="translate(-403.8 -158.1)"/>
    </g>
  </g>
  <path id="XMLID_397_" class="cls-33" d="M146.911,48.693,89.191,6.635,80.091,0l-9.1,6.635L13.27,48.693H0v3.517H1.632c2.212,0,3.082,2.32,3.408,4.024V65.08H155V56.053c.363-1.7,1.233-3.879,3.372-3.879H160V48.656H146.911ZM23.639,54.421,80.091,13.27l56.451,41.151Z"/>
  <g id="XMLID_175_" transform="translate(4.858 57.068)">
    <g id="XMLID_395_">
      <path id="XMLID_396_" class="cls-32" d="M14.741,163.564H13.4V162.8h.58v-3.481h2.9v-1.16H13.4V157.4h4.242v2.683h-2.9Z" transform="translate(-13.4 -157.4)"/>
    </g>
    <g id="XMLID_391_" transform="translate(2.393 0.036)">
      <path id="XMLID_392_" class="cls-32" d="M25.692,163.627H20v-2.574h2.937V157.5h5.656v2.647h-2.9Zm-4.931-.761h4.206v-3.481h2.9v-1.2H23.7v3.553H20.761Z" transform="translate(-20 -157.5)"/>
    </g>
    <g id="XMLID_387_" transform="translate(9.173 0.036)">
      <path id="XMLID_388_" class="cls-32" d="M44.392,163.627H38.7v-2.574h2.937V157.5h5.656v2.647h-2.9Zm-4.967-.761h4.206v-3.481h2.9v-1.2h-4.17v3.553H39.425Z" transform="translate(-38.7 -157.5)"/>
    </g>
    <g id="XMLID_383_" transform="translate(15.953 0.036)">
      <path id="XMLID_384_" class="cls-32" d="M63.056,163.627H57.4v-2.574h2.937V157.5h5.62v2.647h-2.9Zm-4.931-.761h4.206v-3.481h2.9v-1.2H61.062v3.553H58.125Z" transform="translate(-57.4 -157.5)"/>
    </g>
    <g id="XMLID_379_" transform="translate(22.697 0.036)">
      <path id="XMLID_380_" class="cls-32" d="M81.692,163.627H76v-2.574h2.937V157.5h5.656v2.647h-2.9Zm-4.931-.761h4.206v-3.481h2.9v-1.2H79.662v3.553H76.725v1.124Z" transform="translate(-76 -157.5)"/>
    </g>
    <g id="XMLID_375_" transform="translate(29.477 0.036)">
      <path id="XMLID_376_" class="cls-32" d="M100.356,163.627H94.7v-2.574h2.937V157.5h5.656v2.647h-2.9v3.481Zm-4.931-.761h4.206v-3.481h2.9v-1.2H98.362v3.553H95.425Z" transform="translate(-94.7 -157.5)"/>
    </g>
    <g id="XMLID_371_" transform="translate(36.22 0.036)">
      <path id="XMLID_372_" class="cls-32" d="M118.992,163.627H113.3v-2.574h2.937V157.5h5.656v2.647h-2.9Zm-4.931-.761h4.206v-3.481h2.9v-1.2H117v3.553h-2.937Z" transform="translate(-113.3 -157.5)"/>
    </g>
    <g id="XMLID_367_" transform="translate(43 0.036)">
      <path id="XMLID_368_" class="cls-32" d="M137.692,163.627H132v-2.574h2.937V157.5h5.656v2.647h-2.9v3.481Zm-4.967-.761h4.206v-3.481h2.9v-1.2h-4.169v3.553h-2.937Z" transform="translate(-132 -157.5)"/>
    </g>
    <g id="XMLID_319_" transform="translate(49.744 0.036)">
      <path id="XMLID_320_" class="cls-32" d="M156.292,163.627H150.6v-2.574h2.937V157.5h5.656v2.647h-2.9v3.481Zm-4.931-.761h4.206v-3.481h2.9v-1.2H154.3v3.553h-2.937Z" transform="translate(-150.6 -157.5)"/>
    </g>
    <g id="XMLID_226_" transform="translate(56.524 0.036)">
      <path id="XMLID_227_" class="cls-32" d="M174.992,163.627H169.3v-2.574h2.937V157.5h5.656v2.647h-2.9Zm-4.967-.761h4.206v-3.481h2.9v-1.2h-4.169v3.553h-2.937Z" transform="translate(-169.3 -157.5)"/>
    </g>
    <g id="XMLID_222_" transform="translate(63.268 0.036)">
      <path id="XMLID_223_" class="cls-32" d="M193.592,163.627H187.9v-2.574h2.937V157.5h5.656v2.647h-2.9Zm-4.931-.761h4.206v-3.481h2.9v-1.2h-4.206v3.553h-2.9Z" transform="translate(-187.9 -157.5)"/>
    </g>
    <g id="XMLID_218_" transform="translate(70.048 0.036)">
      <path id="XMLID_219_" class="cls-32" d="M212.292,163.627H206.6v-2.574h2.937V157.5h5.656v2.647h-2.9v3.481Zm-4.967-.761h4.206v-3.481h2.9v-1.2h-4.17v3.553h-2.937Z" transform="translate(-206.6 -157.5)"/>
    </g>
    <g id="XMLID_214_" transform="translate(76.791 0.036)">
      <path id="XMLID_215_" class="cls-32" d="M230.892,163.627H225.2v-2.574h2.937V157.5h5.656v2.647h-2.9Zm-4.931-.761h4.206v-3.481h2.9v-1.2H228.9v3.553h-2.937Z" transform="translate(-225.2 -157.5)"/>
    </g>
    <g id="XMLID_210_" transform="translate(83.571 0.036)">
      <path id="XMLID_211_" class="cls-32" d="M249.592,163.627H243.9v-2.574h2.937V157.5h5.656v2.647h-2.9Zm-4.931-.761h4.206v-3.481h2.9v-1.2h-4.206v3.553h-2.9Z" transform="translate(-243.9 -157.5)"/>
    </g>
    <g id="XMLID_206_" transform="translate(90.315 0.036)">
      <path id="XMLID_207_" class="cls-32" d="M268.192,163.627H262.5v-2.574h2.937V157.5h5.656v2.647h-2.9Zm-4.931-.761h4.206v-3.481h2.9v-1.2H266.2v3.553h-2.937Z" transform="translate(-262.5 -157.5)"/>
    </g>
    <g id="XMLID_202_" transform="translate(97.095 0.036)">
      <path id="XMLID_203_" class="cls-32" d="M286.892,163.627H281.2v-2.574h2.937V157.5h5.656v2.647h-2.9Zm-4.931-.761h4.206v-3.481h2.9v-1.2H284.9v3.553h-2.937Z" transform="translate(-281.2 -157.5)"/>
    </g>
    <g id="XMLID_198_" transform="translate(103.875 0.036)">
      <path id="XMLID_199_" class="cls-32" d="M305.592,163.627H299.9v-2.574h2.937V157.5h5.656v2.647h-2.9Zm-4.967-.761h4.206v-3.481h2.9v-1.2h-4.169v3.553h-2.937Z" transform="translate(-299.9 -157.5)"/>
    </g>
    <g id="XMLID_194_" transform="translate(110.619 0.036)">
      <path id="XMLID_195_" class="cls-32" d="M324.192,163.627H318.5v-2.574h2.937V157.5h5.656v2.647h-2.9Zm-4.931-.761h4.206v-3.481h2.9v-1.2H322.2v3.553h-2.937Z" transform="translate(-318.5 -157.5)"/>
    </g>
    <g id="XMLID_190_" transform="translate(117.399 0.036)">
      <path id="XMLID_191_" class="cls-32" d="M342.892,163.627H337.2v-2.574h2.937V157.5h5.656v2.647h-2.9Zm-4.967-.761h4.206v-3.481h2.9v-1.2h-4.169v3.553h-2.937Z" transform="translate(-337.2 -157.5)"/>
    </g>
    <g id="XMLID_186_" transform="translate(124.142 0.036)">
      <path id="XMLID_187_" class="cls-32" d="M361.492,163.627H355.8v-2.574h2.937V157.5h5.656v2.647h-2.9Zm-4.931-.761h4.206v-3.481h2.9v-1.2H359.5v3.553h-2.937Z" transform="translate(-355.8 -157.5)"/>
    </g>
    <g id="XMLID_182_" transform="translate(130.922 0.036)">
      <path id="XMLID_183_" class="cls-32" d="M380.192,163.627H374.5v-2.574h2.937V157.5h5.656v2.647h-2.9Zm-4.967-.761h4.206v-3.481h2.9v-1.2h-4.169v3.553h-2.937Z" transform="translate(-374.5 -157.5)"/>
    </g>
    <g id="XMLID_178_" transform="translate(137.666 0.036)">
      <path id="XMLID_179_" class="cls-32" d="M398.792,163.627H393.1v-2.574h2.937V157.5h5.656v2.647h-2.9Zm-4.931-.761h4.206v-3.481h2.9v-1.2H396.8v3.553h-2.937Z" transform="translate(-393.1 -157.5)"/>
    </g>
    <g id="XMLID_176_" transform="translate(144.446)">
      <path id="XMLID_177_" class="cls-32" d="M417.13,163.564H411.8v-2.574h2.937V157.4h2.393v.761h-1.668v3.553h-2.937V162.8h4.6Z" transform="translate(-411.8 -157.4)"/>
    </g>
  </g>
  <g id="XMLID_172_" transform="translate(71.679 27.569)">
    <path id="XMLID_174_" d="M212.3,99.355a5.313,5.313,0,0,0-1.922-3.481c-1.233-.834-1.559-2.1-.218-2.357s2.067,3.626,2.067,3.626a21.3,21.3,0,0,0-.254-5.62,5.449,5.449,0,0,0-3.227-3.916l.471-.979a5.257,5.257,0,0,0-4.6-.8c-2.61.725-3.3,3.7-3.3,3.7l.58.29a4.428,4.428,0,0,0-.58,1.341h0a23.327,23.327,0,0,0-.544,5.511c0,1.668-2.647,1.777-2.574,2.465.036.689,2.212.29,4.6.29,2.357,0,2.465-2.357,2.465-2.973s0-1.305,1.051-1.305,1.16.58,1.16,1.269.073,1.2,1.16,1.45c1.051.254,1.233,1.45,1.668,2.5s2.1,1.45,2.1,1.45A18.5,18.5,0,0,0,212.3,99.355Z" transform="translate(-198.016 -82.148)"/>
    <path id="XMLID_173_" d="M200.564,83.53a5.031,5.031,0,0,1,.58-1.849,3.983,3.983,0,0,1,.326-.508A6.015,6.015,0,0,1,202.74,79.9a3.309,3.309,0,0,1,.471-.29,5.365,5.365,0,0,1,1.668-.58,2.818,2.818,0,0,1,.58-.073,5.928,5.928,0,0,1,1.777.181,3.191,3.191,0,0,1,.544.181,5.084,5.084,0,0,1,1.6,1.051c.29-.29.58-.616.87-.906.4-.4.761-.8,1.16-1.2a8.252,8.252,0,0,0-2.5-1.632c-.218.508-.435,1.015-.653,1.559a5.284,5.284,0,0,0-.689-.254c.145-.544.326-1.088.471-1.6a7.946,7.946,0,0,0-2.755-.29c.036.544.073,1.124.109,1.668a4.441,4.441,0,0,0-.689.073c-.109-.544-.181-1.088-.29-1.632a8.074,8.074,0,0,0-2.574.906c.254.471.544.979.8,1.45-.218.109-.4.254-.58.363-.326-.471-.653-.906-.979-1.378a8.364,8.364,0,0,0-1.958,1.958c.471.326.906.653,1.378.979-.145.181-.254.4-.4.616-.508-.254-.979-.544-1.487-.8a7.387,7.387,0,0,0-.906,2.864c.544.073,1.088.145,1.668.218C199.73,83.421,200.129,83.458,200.564,83.53Z" transform="translate(-197.7 -76.039)"/>
  </g>
  <g id="XMLID_2_" transform="translate(59.461 29.221)">
    <g id="XMLID_154_">
      <g id="XMLID_155_">
        <path id="XMLID_171_" class="cls-1" d="M174.422,83.128c.145,1.233.254,2.248-.145,2.465-.363.218-1.124-.471-1.378-1.74a4.031,4.031,0,0,1,.653-2.755A3.768,3.768,0,0,1,174.422,83.128Z" transform="translate(-169.636 -80.914)"/>
        <path id="XMLID_170_" class="cls-1" d="M179.911,83.279c-.979,1.2-1.777,1.958-2.284,1.777-.4-.145-.29-1.45.8-2.755a5.075,5.075,0,0,1,2.357-1.7A4.671,4.671,0,0,1,179.911,83.279Z" transform="translate(-172.551 -80.594)"/>
        <path id="XMLID_169_" class="cls-1" d="M178.255,92.939c-1.124.435-2.139.725-2.284.4-.145-.29.689-1.088,1.885-1.487a4.016,4.016,0,0,1,2.248-.073A5.67,5.67,0,0,1,178.255,92.939Z" transform="translate(-171.62 -87.644)"/>
        <path id="XMLID_168_" class="cls-1" d="M170.073,91.122c.544,1.233.906,2.248.544,2.538-.326.29-1.341-.29-2.03-1.523a4.26,4.26,0,0,1-.145-2.937A4.817,4.817,0,0,1,170.073,91.122Z" transform="translate(-166.701 -86.08)"/>
        <path id="XMLID_167_" class="cls-1" d="M177.128,99.068c-1.233.725-2.357,1.269-2.61.943s.544-1.378,1.849-2.067a5.8,5.8,0,0,1,2.719-.544A10.75,10.75,0,0,1,177.128,99.068Z" transform="translate(-170.674 -91.307)"/>
        <path id="XMLID_166_" class="cls-1" d="M167.66,101.123c.834,1.051,1.45,1.958,1.16,2.284-.254.326-1.378-.036-2.357-1.088a4.067,4.067,0,0,1-.87-2.719A5.171,5.171,0,0,1,167.66,101.123Z" transform="translate(-165.014 -92.709)"/>
        <path id="XMLID_165_" class="cls-1" d="M177.061,106.5c-.943.8-1.885,1.414-2.248,1.124-.326-.254.109-1.305,1.16-2.067a4.653,4.653,0,0,1,2.429-.761A5.3,5.3,0,0,1,177.061,106.5Z" transform="translate(-170.825 -96.024)"/>
        <path id="XMLID_164_" class="cls-1" d="M166.61,110.5c1.2.906,2.067,1.74,1.849,2.1-.218.4-1.487.218-2.792-.689A4.489,4.489,0,0,1,164,109.3,8.122,8.122,0,0,1,166.61,110.5Z" transform="translate(-164 -98.892)"/>
        <path id="XMLID_163_" class="cls-1" d="M178.829,113.149c-.725.906-1.45,1.632-1.885,1.414-.4-.218-.218-1.269.616-2.175A4.536,4.536,0,0,1,179.7,111.3,4.706,4.706,0,0,1,178.829,113.149Z" transform="translate(-172.121 -100.167)"/>
        <path id="XMLID_162_" class="cls-1" d="M168.562,120.031c1.414.689,2.5,1.305,2.393,1.7s-1.45.471-2.973-.145a4.519,4.519,0,0,1-2.284-2.212A6.217,6.217,0,0,1,168.562,120.031Z" transform="translate(-165.081 -105.309)"/>
        <path id="XMLID_161_" class="cls-1" d="M182.587,117.975c-.58,1.16-1.2,2.1-1.668,1.994s-.471-1.305.218-2.465a5,5,0,0,1,2.03-1.7A5.373,5.373,0,0,1,182.587,117.975Z" transform="translate(-174.575 -103.035)"/>
        <path id="XMLID_160_" class="cls-1" d="M172.846,128.558c1.559.4,2.828.834,2.828,1.233s-1.341.725-3.009.363a5.771,5.771,0,0,1-2.864-1.74A6.733,6.733,0,0,1,172.846,128.558Z" transform="translate(-167.697 -111.008)"/>
        <path id="XMLID_159_" class="cls-1" d="M187.61,123.412c-.29,1.2-.689,2.248-1.16,2.175-.508-.036-.8-1.2-.435-2.429a4.281,4.281,0,0,1,1.6-1.958A4.259,4.259,0,0,1,187.61,123.412Z" transform="translate(-177.93 -106.478)"/>
        <path id="XMLID_158_" class="cls-1" d="M179.417,135.673c1.7.109,3.082.326,3.191.725s-1.16.906-2.973.87a6.1,6.1,0,0,1-3.336-1.2A8.621,8.621,0,0,1,179.417,135.673Z" transform="translate(-171.839 -115.694)"/>
        <path id="XMLID_157_" class="cls-1" d="M193.858,128.039c.036,1.2-.073,2.284-.58,2.32s-1.16-1.015-1.088-2.284a3.5,3.5,0,0,1,1.124-2.175A5.334,5.334,0,0,1,193.858,128.039Z" transform="translate(-181.966 -109.474)"/>
        <path id="XMLID_156_" class="cls-1" d="M185.191,109.245c.254.073.4.254.326.435h0c-.073.181-.363.254-.616.181-9.209-2.429-13.016-10.623-9.789-17.983a.512.512,0,0,1,.544-.29h0a.315.315,0,0,1,.181.471C172.719,99.057,176.381,106.924,185.191,109.245Z" transform="translate(-170.362 -87.597)"/>
      </g>
    </g>
    <g id="XMLID_14_" transform="translate(25.397)">
      <g id="XMLID_134_">
        <path id="XMLID_153_" class="cls-1" d="M262.469,83.128c-.145,1.233-.254,2.248.145,2.465.363.218,1.124-.471,1.378-1.74a4.031,4.031,0,0,0-.653-2.755A3.768,3.768,0,0,0,262.469,83.128Z" transform="translate(-252.081 -80.914)"/>
        <path id="XMLID_152_" class="cls-1" d="M254.069,83.279c.979,1.2,1.777,1.958,2.284,1.777.4-.145.29-1.45-.8-2.755a5.075,5.075,0,0,0-2.357-1.7A4.671,4.671,0,0,0,254.069,83.279Z" transform="translate(-246.255 -80.594)"/>
        <path id="XMLID_151_" class="cls-1" d="M254.349,92.939c1.124.435,2.139.725,2.284.4.145-.29-.689-1.088-1.885-1.487a4.015,4.015,0,0,0-2.248-.073A5.67,5.67,0,0,0,254.349,92.939Z" transform="translate(-245.81 -87.644)"/>
        <path id="XMLID_150_" class="cls-1" d="M265.387,91.122c-.544,1.233-.906,2.248-.544,2.538.326.29,1.341-.29,2.03-1.523a4.26,4.26,0,0,0,.145-2.937A4.817,4.817,0,0,0,265.387,91.122Z" transform="translate(-253.585 -86.08)"/>
        <path id="XMLID_149_" class="cls-1" d="M254.658,99.068c1.233.725,2.357,1.269,2.61.943s-.544-1.378-1.849-2.067A5.8,5.8,0,0,0,252.7,97.4,10.75,10.75,0,0,0,254.658,99.068Z" transform="translate(-245.938 -91.307)"/>
        <path id="XMLID_148_" class="cls-1" d="M266.432,101.123c-.834,1.051-1.45,1.958-1.16,2.284.254.326,1.378-.036,2.357-1.088a4.067,4.067,0,0,0,.87-2.719A5.171,5.171,0,0,0,266.432,101.123Z" transform="translate(-253.905 -92.709)"/>
        <path id="XMLID_147_" class="cls-1" d="M256.341,106.5c.943.8,1.885,1.414,2.248,1.124.326-.254-.109-1.305-1.16-2.067A4.653,4.653,0,0,0,255,104.8,5.3,5.3,0,0,0,256.341,106.5Z" transform="translate(-247.404 -96.024)"/>
        <path id="XMLID_143_" class="cls-1" d="M265.39,110.5c-1.2.906-2.067,1.74-1.849,2.1.218.4,1.487.218,2.792-.689A4.49,4.49,0,0,0,268,109.3,8.121,8.121,0,0,0,265.39,110.5Z" transform="translate(-252.827 -98.892)"/>
        <path id="XMLID_142_" class="cls-1" d="M255.87,113.149c.725.906,1.45,1.632,1.885,1.414.4-.218.218-1.269-.616-2.175A4.536,4.536,0,0,0,255,111.3,4.705,4.705,0,0,0,255.87,113.149Z" transform="translate(-247.404 -100.167)"/>
        <path id="XMLID_141_" class="cls-1" d="M262.08,120.031c-1.414.689-2.5,1.305-2.393,1.7s1.45.471,2.973-.145a4.519,4.519,0,0,0,2.284-2.212A6.217,6.217,0,0,0,262.08,120.031Z" transform="translate(-250.386 -105.309)"/>
        <path id="XMLID_140_" class="cls-1" d="M252.78,117.975c.58,1.16,1.2,2.1,1.668,1.994s.471-1.305-.218-2.465a5,5,0,0,0-2.03-1.7A5.373,5.373,0,0,0,252.78,117.975Z" transform="translate(-245.619 -103.035)"/>
        <path id="XMLID_139_" class="cls-1" d="M256.728,128.558c-1.559.4-2.828.834-2.828,1.233s1.341.725,3.009.363a5.771,5.771,0,0,0,2.864-1.74A6.733,6.733,0,0,0,256.728,128.558Z" transform="translate(-246.703 -111.008)"/>
        <path id="XMLID_138_" class="cls-1" d="M248.958,123.412c.29,1.2.689,2.248,1.16,2.175.508-.036.8-1.2.435-2.429a4.281,4.281,0,0,0-1.6-1.958A4.259,4.259,0,0,0,248.958,123.412Z" transform="translate(-243.465 -106.478)"/>
        <path id="XMLID_137_" class="cls-1" d="M249.379,135.673c-1.7.109-3.082.326-3.191.725s1.16.906,2.973.87a6.1,6.1,0,0,0,3.336-1.2A8.621,8.621,0,0,0,249.379,135.673Z" transform="translate(-241.783 -115.694)"/>
        <path id="XMLID_136_" class="cls-1" d="M243.089,128.039c-.036,1.2.073,2.284.58,2.32s1.16-1.015,1.088-2.284a3.494,3.494,0,0,0-1.124-2.175A5.334,5.334,0,0,0,243.089,128.039Z" transform="translate(-239.807 -109.474)"/>
        <path id="XMLID_135_" class="cls-1" d="M234.393,109.245c-.254.073-.4.254-.326.435h0c.073.181.363.254.616.181,9.209-2.429,13.016-10.623,9.789-17.983a.512.512,0,0,0-.544-.29h0a.315.315,0,0,0-.181.471C246.866,99.057,243.2,106.924,234.393,109.245Z" transform="translate(-234.049 -87.597)"/>
      </g>
    </g>
  </g>
</svg>
